<svg xmlns="http://www.w3.org/2000/svg" width="20" height="21" viewBox="0 0 20 21">
    <path fill="#FFF" fill-rule="nonzero" d="M19.392 20.738a.729.729 0 0 1-1.048-.056l-3.458-3.826A9.062 9.062 0 0 1 8.482 18.5C4.202 18.046.773 14.617.32 10.338-.275 4.585 4.43-.232 10.125.108c4.591.283 8.332 4.024 8.616 8.643a9.192 9.192 0 0 1-2.721 7.141l3.429 3.798a.783.783 0 0 1-.057 1.048zM9.53 17.083c4.28 0 7.737-3.486 7.737-7.737 0-4.28-3.486-7.737-7.737-7.737-4.25 0-7.736 3.486-7.736 7.737-.029 4.28 3.457 7.737 7.736 7.737z"/>
</svg>
