<svg xmlns="http://www.w3.org/2000/svg" width="32" height="32" viewBox="0 0 32 32">
    <g fill="none" fill-rule="evenodd">
        <path fill="#939393" fill-rule="nonzero" d="M5.251 4.816c0-.302.25-.547.556-.547.307 0 .555.245.555.547v12.56a.552.552 0 0 1-.555.548.552.552 0 0 1-.556-.548V4.816zm0 16.668c0-.302.25-.548.556-.548.307 0 .555.246.555.548v4.7a.552.552 0 0 1-.555.547.552.552 0 0 1-.556-.548v-4.7zM14.944 4.816c0-.302.25-.547.556-.547.307 0 .556.245.556.547v4.7a.552.552 0 0 1-.556.548.552.552 0 0 1-.556-.548v-4.7zm0 8.807c0-.302.25-.547.556-.547.307 0 .556.245.556.547v12.56a.552.552 0 0 1-.556.548.552.552 0 0 1-.556-.548v-12.56zM24.637 4.816c0-.302.25-.547.556-.547.307 0 .556.245.556.547v8.63a.552.552 0 0 1-.556.548.552.552 0 0 1-.556-.548v-8.63zm0 12.738c0-.303.25-.548.556-.548.307 0 .556.245.556.548v8.63a.552.552 0 0 1-.556.547.552.552 0 0 1-.556-.548v-8.63z"/>
        <path fill="#939393" fill-rule="nonzero" d="M15.5 8.969a2.65 2.65 0 0 1 1.866.761 2.576 2.576 0 0 1 0 3.679 2.65 2.65 0 0 1-1.866.762 2.649 2.649 0 0 1-1.866-.762 2.574 2.574 0 0 1 0-3.679A2.65 2.65 0 0 1 15.5 8.97zm1.08 1.536a1.534 1.534 0 0 0-1.08-.44c-.422 0-.804.167-1.08.44a1.49 1.49 0 0 0 0 2.13c.276.272.658.441 1.08.441.422 0 .804-.169 1.08-.44a1.491 1.491 0 0 0 0-2.131z"/>
        <path fill="#949494" fill-rule="nonzero" d="M5.807 16.83c.729 0 1.388.29 1.866.761a2.574 2.574 0 0 1 0 3.678 2.649 2.649 0 0 1-1.866.762 2.649 2.649 0 0 1-1.866-.762 2.574 2.574 0 0 1 0-3.678 2.649 2.649 0 0 1 1.866-.762zm1.08 1.535a1.534 1.534 0 0 0-1.08-.44c-.422 0-.804.168-1.08.44a1.491 1.491 0 0 0 0 2.13c.276.273.658.441 1.08.441.422 0 .804-.168 1.08-.44a1.49 1.49 0 0 0 0-2.13z"/>
        <path fill="#939393" fill-rule="nonzero" d="M25.193 12.899a2.65 2.65 0 0 1 1.866.762 2.576 2.576 0 0 1 0 3.678 2.65 2.65 0 0 1-1.866.762 2.65 2.65 0 0 1-1.866-.762 2.575 2.575 0 0 1 0-3.678 2.65 2.65 0 0 1 1.866-.762zm1.08 1.536a1.534 1.534 0 0 0-1.08-.441c-.422 0-.804.168-1.08.44a1.49 1.49 0 0 0 0 2.131c.276.273.658.441 1.08.441.422 0 .804-.168 1.08-.44a1.49 1.49 0 0 0 0-2.131z"/>
        <path d="M0 0h32v32H0z"/>
    </g>
</svg>
