<svg xmlns="http://www.w3.org/2000/svg" width="33" height="33" viewBox="0 0 33 33">
    <g fill="none" fill-rule="evenodd">
        <path fill="#939393" fill-rule="nonzero" d="M16.143 4.446c-.822 0-1.496.652-1.496 1.474 0 .695.494 1.287 1.139 1.45v6.05h.714V7.37a1.514 1.514 0 0 0 1.138-1.45c0-.822-.673-1.474-1.495-1.474zM8.978 7.571a1.446 1.446 0 0 0-1.05.402 1.483 1.483 0 0 0-.089 2.098 1.495 1.495 0 0 0 1.697.335l4.33 4.174.491-.513-4.24-4.107a1.494 1.494 0 0 0-.09-1.92c-.28-.3-.669-.455-1.05-.469zm14.308 0c-.38-.013-.771.122-1.072.402-.483.45-.577 1.128-.312 1.697L17.705 14l.514.513 4.13-4.263c.564.42 1.362.386 1.897-.112.6-.56.627-1.497.067-2.098-.28-.3-.647-.455-1.027-.469zM5.92 14.647c-.822 0-1.474.674-1.474 1.496s.652 1.495 1.474 1.495c.695 0 1.287-.494 1.45-1.138h6.05v-.714H7.37a1.514 1.514 0 0 0-1.45-1.139zm20.446 0c-.695 0-1.287.494-1.45 1.139h-6.05v.714h6.05a1.514 1.514 0 0 0 1.45 1.138c.822 0 1.473-.673 1.473-1.495 0-.822-.651-1.496-1.473-1.496zm-8.103 3.192l-.49.514 4.352 4.196a1.486 1.486 0 0 0 .156 1.808c.56.601 1.497.627 2.098.067.602-.56.65-1.497.09-2.098-.479-.514-1.245-.599-1.83-.268l-4.376-4.219zm-4.33.067l-4.107 4.241a1.483 1.483 0 0 0-1.897.112 1.483 1.483 0 0 0-.09 2.098c.56.601 1.497.627 2.099.067.483-.45.599-1.128.334-1.696l4.174-4.308-.513-.514zm1.853.938v6.071a1.514 1.514 0 0 0-1.139 1.451c0 .822.674 1.473 1.496 1.473s1.495-.651 1.495-1.473c0-.695-.494-1.287-1.138-1.45v-6.072h-.714z"/>
        <path fill="#939393" fill-rule="nonzero" d="M19 16.143a2.857 2.857 0 1 0-5.714 0 2.857 2.857 0 0 0 5.714 0z"/>
        <path d="M.143.099h32v32h-32z"/>
    </g>
</svg>
