<svg xmlns="http://www.w3.org/2000/svg" xmlns:xlink="http://www.w3.org/1999/xlink" width="120" height="20" viewBox="0 0 120 20"><defs><path id="a" d="M0 .142V19.41h25.88V.142H0z"/></defs><g fill="none" fill-rule="evenodd"><path fill="#1D0747" d="M36.316 1.086c0-.152.106-.247.21-.357C36.63.62 36.824.6 37 .6h2.546c.341 0 .336.115.336.486v14.862h7.515c.15 0 .257.019.365.124.108.106.14.213.14.39v2.314c0 .346-.138.557-.505.557H36.974c-.367 0-.658-.186-.658-.557V1.086zM52.601 9.963c0 .851.144 1.65.431 2.396a6.015 6.015 0 0 0 1.205 1.953 5.654 5.654 0 0 0 1.835 1.316c.707.32 1.485.48 2.334.48a5.602 5.602 0 0 0 4.17-1.796 6.115 6.115 0 0 0 1.21-1.953 6.534 6.534 0 0 0 .437-2.396c0-.86-.146-1.665-.437-2.416a6.1 6.1 0 0 0-1.21-1.96 5.728 5.728 0 0 0-1.842-1.321 5.546 5.546 0 0 0-2.328-.487c-.85 0-1.627.163-2.334.487a5.74 5.74 0 0 0-1.835 1.321 6.001 6.001 0 0 0-1.205 1.96 6.7 6.7 0 0 0-.43 2.416m-3.708 0a9.721 9.721 0 0 1 2.79-6.854 9.333 9.333 0 0 1 1.928-1.511 9.714 9.714 0 0 1 2.279-.974 9.201 9.201 0 0 1 2.54-.348c.874 0 1.718.117 2.534.348a9.491 9.491 0 0 1 4.22 2.485 9.493 9.493 0 0 1 1.49 1.966c.413.721.733 1.492.962 2.314.229.822.343 1.68.343 2.574 0 .893-.114 1.751-.343 2.573a9.852 9.852 0 0 1-.962 2.301 9.487 9.487 0 0 1-1.491 1.948 9.783 9.783 0 0 1-1.935 1.51 9.335 9.335 0 0 1-2.284.974 9.368 9.368 0 0 1-2.534.342 9.346 9.346 0 0 1-4.819-1.315 9.615 9.615 0 0 1-1.928-1.511 9.788 9.788 0 0 1-1.492-1.948 9.512 9.512 0 0 1-.961-2.301 9.721 9.721 0 0 1-.337-2.573M73.746 11.91c0 .59.18 1.147.37 1.669.192.523.505.98.854 1.372.35.392.789.702 1.276.93a3.784 3.784 0 0 0 1.614.34c.583 0 1.12-.113 1.603-.34a3.865 3.865 0 0 0 1.25-.93c.35-.392.598-.849.79-1.372.19-.522.264-1.079.264-1.669V1.111c0-.152.08-.26.192-.37.113-.109.276-.14.443-.14h2.471c.15 0 .209.027.342.128.133.101.117.213.117.382V11.91c0 1.062-.117 2.061-.517 2.997-.399.936-.905 1.755-1.6 2.46a7.648 7.648 0 0 1-2.407 1.662c-.924.405-1.9.607-2.948.607a7.285 7.285 0 0 1-2.017-.278 7.602 7.602 0 0 1-1.82-.784 7.821 7.821 0 0 1-1.546-1.208 7.619 7.619 0 0 1-1.198-1.561 7.903 7.903 0 0 1-.798-1.847 7.612 7.612 0 0 1-.3-2.048V1.111c0-.127.075-.228.175-.35.1-.122.25-.16.4-.16h2.583c.117 0 .158.031.291.14.133.11.116.218.116.37V11.91zM92.461 3.986v11.962h2.452c.832 0 1.616-.18 2.353-.47a5.961 5.961 0 0 0 1.928-1.237 5.805 5.805 0 0 0 1.305-1.88c.32-.725.48-1.526.48-2.394 0-.868-.16-1.672-.48-2.405a5.887 5.887 0 0 0-1.305-1.898 5.954 5.954 0 0 0-1.928-1.231 6.193 6.193 0 0 0-2.353-.447H92.46zm12.25 5.976c0 .894-.112 1.744-.336 2.549a9.167 9.167 0 0 1-.961 2.25 9.335 9.335 0 0 1-3.415 3.332 9.598 9.598 0 0 1-2.278.917 9.895 9.895 0 0 1-2.534.323h-5.742c-.066 0-.133-.004-.2-.013a.545.545 0 0 1-.193-.063c-.062-.034-.199-.084-.236-.152-.037-.067-.142-.16-.142-.278V1.162c0-.422.372-.562.771-.562h5.742a9.47 9.47 0 0 1 4.8 1.224c.703.405 1.346.88 1.928 1.446a8.928 8.928 0 0 1 1.492 1.892c.412.7.732 1.452.961 2.261a9.29 9.29 0 0 1 .344 2.54zM117.173 5.562a.572.572 0 0 1-.3-.082 2.915 2.915 0 0 1-.311-.221l-.025-.013a6.309 6.309 0 0 0-.612-.531 6.327 6.327 0 0 0-.836-.544 6.056 6.056 0 0 0-.993-.43 3.393 3.393 0 0 0-1.08-.177c-.466 0-.878.053-1.235.158a2.796 2.796 0 0 0-.899.43 1.85 1.85 0 0 0-.55.639 1.7 1.7 0 0 0-.187.784c0 .303.094.569.282.796.187.228.44.433.76.614.321.181.69.345 1.106.493.415.147.852.289 1.31.423.782.245 1.554.517 2.316.816.761.3 1.442.664 2.04 1.094.6.43 1.085.946 1.455 1.549.37.603.555 1.33.555 2.181 0 .919-.183 1.75-.549 2.491a5.677 5.677 0 0 1-1.517 1.903 6.934 6.934 0 0 1-2.271 1.214 9.016 9.016 0 0 1-2.803.424 8.147 8.147 0 0 1-1.91-.228 9.177 9.177 0 0 1-1.822-.645c-.582-.278-1.245-.613-1.765-1.005-.52-.392-1.057-.833-1.503-1.321v.012l.086-.05a.827.827 0 0 1-.22-.582c0-.169.129-.35.328-.544l.19-.19.243-.227c.125-.11.261-.232.403-.367a5.594 5.594 0 0 1 .82-.645c.121-.075.219-.114.294-.114.116 0 .225.039.325.114.1.076.183.195.25.263l.05.098h-.013c.291.226.618.496.98.749s.734.455 1.117.653.764.342 1.142.456c.379.114.735.165 1.068.165.457 0 .886-.062 1.286-.18.399-.119.744-.286 1.035-.502.292-.214.52-.474.687-.778a2.07 2.07 0 0 0 .25-1.012c0-.37-.109-.69-.325-.955a2.961 2.961 0 0 0-.849-.695 6.502 6.502 0 0 0-1.18-.512 36.453 36.453 0 0 0-1.316-.405 19.645 19.645 0 0 1-2.665-1.012c-.762-.362-1.397-.769-1.904-1.22a4.516 4.516 0 0 1-1.142-1.517c-.254-.561-.38-1.191-.38-1.89 0-.785.155-1.5.467-2.144a4.754 4.754 0 0 1 1.33-1.657c.574-.46 1.264-.817 2.072-1.074.807-.257 1.71-.386 2.708-.386.758 0 1.528.12 2.31.36s1.506.571 2.172.993a8.224 8.224 0 0 1 1.186.917c.174.164.318.324.43.48.113.156.169.289.169.398 0 .11-.025.213-.075.31-.05.097-.146.192-.221.285l-.408.405V4.36c-.223.135-.22.274-.354.417-.133.144-.249.272-.382.386a4.766 4.766 0 0 1-.354.284c-.108.076-.19.114-.266.114"/><g transform="translate(0 .262)"><mask id="b" fill="#fff"><use xlink:href="#a"/></mask><path fill="#5E20E4" d="M16.37.142a9.606 9.606 0 0 0-8.572 5.306V.85c0-.17.018-.281-.099-.383-.116-.1-.182-.128-.348-.128H4.28c-.326 0-.593-.01-.801.014a1.46 1.46 0 0 0-.638.242L.586 1.963c-.366.203-.586.46-.586.78v3.512c0 .16.08.3.167.418a.466.466 0 0 0 .387.178s.083-.013.162-.064l2.18-1.386V18.58c0 .127.1.34.18.454.079.114.283.263.492.263h3.795c.392 0 .435-.37.435-.742v-4.45a9.605 9.605 0 0 0 8.572 5.305c5.252 0 9.51-4.313 9.51-9.634 0-5.32-4.258-9.634-9.51-9.634" mask="url(#b)"/></g><path fill="#1BFDBF" d="M23.852 14.363a6.015 6.015 0 0 1-1.205-1.953 6.613 6.613 0 0 1-.43-2.397c0-.86.143-1.664.43-2.415a6.005 6.005 0 0 1 1.205-1.96c.216-.233.453-.441.703-.634a9.642 9.642 0 0 0-2.366-2.643 9.455 9.455 0 0 0-.89.799 9.79 9.79 0 0 0-2.453 4.28 9.721 9.721 0 0 0-.337 2.573c0 .894.112 1.752.337 2.574.225.822.545 1.589.961 2.301a9.772 9.772 0 0 0 2.437 2.786 9.638 9.638 0 0 0 2.344-2.652 5.605 5.605 0 0 1-.736-.659"/><path fill="#1D0747" d="M24.555 5.004c.346-.266.72-.499 1.131-.687a5.533 5.533 0 0 1 2.335-.487c.673 0 1.312.105 1.915.316.604.21 1.163.506 1.68.885.174.11.324.152.449.127.125-.026.25-.123.374-.291L33.65 2.78c.092-.185.104-.345.037-.48a.784.784 0 0 0-.312-.33A9.642 9.642 0 0 0 30.866.75a9.287 9.287 0 0 0-2.82-.423c-.883 0-1.73.116-2.54.348a9.714 9.714 0 0 0-2.28.973c-.363.215-.708.453-1.038.713a9.64 9.64 0 0 1 2.367 2.643M33.7 17.208l-1.236-2.111c-.124-.17-.247-.262-.368-.279-.12-.016-.273.03-.456.14a6.08 6.08 0 0 1-1.685.885c-.615.21-1.26.316-1.934.316-.85 0-1.628-.16-2.335-.48a5.743 5.743 0 0 1-1.099-.657 9.64 9.64 0 0 1-2.343 2.652 9.372 9.372 0 0 0 5.801 1.987c.99 0 1.942-.145 2.853-.436a9.593 9.593 0 0 0 2.527-1.233.81.81 0 0 0 .313-.316c.066-.126.053-.282-.038-.468"/></g></svg>
