<svg xmlns="http://www.w3.org/2000/svg" width="25" height="40" viewBox="0 0 25 40"><g fill="#FFF" fill-rule="nonzero"><path d="M12.5 39.397c6.724 0 12.155-5.56 12.155-12.328V12.586C24.655 5.776 19.225.26 12.5.26 5.776.259.345 5.776.345 12.586v14.44c0 6.853 5.43 12.37 12.155 12.37zm-9.569-26.81c0-5.389 4.31-9.742 9.569-9.742 5.259 0 9.569 4.396 9.569 9.741v14.44c0 5.388-4.31 9.741-9.569 9.741-5.259 0-9.569-4.31-9.569-9.698V12.586z"/><path d="M12.5 14.698a1.27 1.27 0 0 0 1.293-1.293V9.698A1.27 1.27 0 0 0 12.5 8.405a1.27 1.27 0 0 0-1.293 1.293v3.707c0 .733.56 1.293 1.293 1.293z"/></g></svg>
