<svg xmlns="http://www.w3.org/2000/svg" xmlns:xlink="http://www.w3.org/1999/xlink" viewBox="0 0 483.27 752.7"><defs><style>.cls-1{fill:url(#linear-gradient);}.cls-2{fill:url(#linear-gradient-2);}.cls-3{fill:url(#linear-gradient-3);}.cls-14,.cls-17,.cls-4,.cls-5,.cls-6,.cls-7{opacity:0.4;}.cls-4{fill:url(#linear-gradient-4);}.cls-5{fill:url(#linear-gradient-5);}.cls-6{fill:url(#linear-gradient-6);}.cls-7{fill:url(#linear-gradient-7);}.cls-8{fill:#f9f4f4;}.cls-9{fill:#fff;}.cls-10{fill:#f7f0f0;}.cls-11{fill:url(#linear-gradient-8);}.cls-12{fill:#1bfcbe;}.cls-13{fill:url(#linear-gradient-9);}.cls-14{fill:url(#linear-gradient-10);}.cls-15{fill:#faf6f6;}.cls-16{fill:#80c5de;}.cls-17{fill:url(#linear-gradient-11);}.cls-18{fill:#dbd6dc;}.cls-19{fill:#e0e0e5;}.cls-20{fill:#d9d3d8;}.cls-21{fill:#234761;}.cls-22{fill:url(#linear-gradient-12);}.cls-23{fill:#83c9e2;}.cls-24{fill:#3689ad;}.cls-25{fill:#0e2b40;}.cls-26{fill:#14bd8e;}.cls-27{fill:#a3fde4;}.cls-28{fill:#006837;}.cls-29{fill:#e24f52;}.cls-30{fill:url(#linear-gradient-13);}.cls-31{fill:url(#linear-gradient-14);}.cls-32{fill:url(#linear-gradient-15);}</style><linearGradient id="linear-gradient" x1="173.57" y1="700.25" x2="202.33" y2="700.25" gradientUnits="userSpaceOnUse"><stop offset="0" stop-color="#453faa"/><stop offset="1" stop-color="#644fff"/></linearGradient><linearGradient id="linear-gradient-2" x1="173.57" y1="700.25" x2="201.77" y2="700.25" xlink:href="#linear-gradient"/><linearGradient id="linear-gradient-3" x1="266.79" y1="700.25" x2="295.54" y2="700.25" xlink:href="#linear-gradient"/><linearGradient id="linear-gradient-4" x1="176.5" y1="632.73" x2="201.86" y2="632.73" gradientUnits="userSpaceOnUse"><stop offset="0" stop-color="#3549ff"/><stop offset="0.37" stop-color="#2169f4" stop-opacity="0.63"/><stop offset="1" stop-color="#00a1e1" stop-opacity="0"/></linearGradient><linearGradient id="linear-gradient-5" x1="199.86" y1="620.01" x2="213.13" y2="620.01" xlink:href="#linear-gradient-4"/><linearGradient id="linear-gradient-6" x1="255.03" y1="620.01" x2="268.3" y2="620.01" xlink:href="#linear-gradient-4"/><linearGradient id="linear-gradient-7" x1="266.3" y1="632.73" x2="291.66" y2="632.73" xlink:href="#linear-gradient-4"/><linearGradient id="linear-gradient-8" x1="155.33" y1="564.37" x2="310.79" y2="564.37" gradientUnits="userSpaceOnUse"><stop offset="0" stop-color="#8c59ff"/><stop offset="0.69" stop-color="#644fff"/><stop offset="1" stop-color="#4160ff"/></linearGradient><linearGradient id="linear-gradient-9" x1="171.11" y1="564.37" x2="310.79" y2="564.37" xlink:href="#linear-gradient"/><linearGradient id="linear-gradient-10" x1="112.61" y1="465.27" x2="206.21" y2="465.27" xlink:href="#linear-gradient-4"/><linearGradient id="linear-gradient-11" x1="111.96" y1="276.65" x2="483.27" y2="276.65" xlink:href="#linear-gradient-4"/><linearGradient id="linear-gradient-12" x1="155.33" y1="558.11" x2="213.13" y2="558.11" xlink:href="#linear-gradient"/><linearGradient id="linear-gradient-13" x1="219.72" y1="697.3" x2="240.57" y2="697.3" xlink:href="#linear-gradient-8"/><linearGradient id="linear-gradient-14" x1="219.7" y1="700.25" x2="248.46" y2="700.25" xlink:href="#linear-gradient"/><linearGradient id="linear-gradient-15" x1="222.88" y1="694.53" x2="232.79" y2="694.53" xlink:href="#linear-gradient"/></defs><title>Asset 1</title><g id="Layer_2" data-name="Layer 2"><g id="Layer_1-2" data-name="Layer 1"><path class="cls-1" d="M187.1,679.85c-6-.09-13.58,13.39-13.53,25.8,0,3,1.08,8.71,5.92,12.26a14.74,14.74,0,0,0,16.49.42c5.81-3.89,6.34-9.59,6.34-13.11,0-12-11-25.31-15.22-25.37Z"/><path class="cls-2" d="M184.75,712.55c-5.77-3.26-10.56-18.53,2.56-32.66l-.21,0c-6-.09-13.58,13.39-13.53,25.8,0,3,1.08,8.71,5.92,12.26a14.74,14.74,0,0,0,16.49.42,13.45,13.45,0,0,0,5.79-8.13c-3.79,3.55-9.85,6.41-17,2.35Z"/><path class="cls-3" d="M280.32,679.85c-6-.09-13.58,13.39-13.53,25.8,0,3,1.08,8.71,5.92,12.26a14.74,14.74,0,0,0,16.49.42c5.81-3.89,6.34-9.59,6.34-13.11,0-12-11-25.31-15.22-25.37"/><polygon class="cls-4" points="176.5 591.98 196.08 674.85 201.86 673.48 182.27 590.61 176.5 591.98 176.5 591.98"/><polygon class="cls-5" points="199.86 570.68 207.21 669.78 213.13 669.34 205.78 570.24 199.86 570.68 199.86 570.68"/><polygon class="cls-6" points="255.03 669.34 260.95 669.78 268.3 570.68 262.38 570.24 255.03 669.34 255.03 669.34"/><polyline class="cls-7" points="266.3 673.48 272.07 674.85 291.66 591.98 285.88 590.61 266.3 673.48"/><path class="cls-8" d="M200.58,46C206.46,25.8,213.09,14.86,216,10.35A116.78,116.78,0,0,1,223.55,0c-11.06.48-22.24,1.6-34,3.27a116,116,0,0,0-13.61,8c-77.15,53.12-60.46,178-54.82,215.43C137.46,335.44,193,497.54,206.21,536.2h15.63c-5.74-49.71-16.72-141.88-18.36-158.07C200,343.63,182,183.82,192.86,89.39c.88-7.63,2-23.65,7.72-43.37"/><path class="cls-8" d="M41,160.79C41,103.22,72.11,55,104.25,25.3,72,39.17,49,57.23,33.67,73.61a194.28,194.28,0,0,0-20.29,39,207.83,207.83,0,0,0-12.54,55c-2.56,28.28,1.28,49.78,3.86,63.65,5.75,30.92,15.28,52.62,28,81a710.88,710.88,0,0,0,34.72,67.88c35.08,60,74.16,116.37,101.62,156.14h16.05c-31.92-60.75-92-180.71-95.8-189.89C83,331.4,41,249.87,41,160.79"/><path class="cls-9" d="M456.79,112.53a244.4,244.4,0,0,0-16.69-26c-7.39-10.07-23.93-29.19-49.18-46.29-4.53-3.07-9-5.85-13.52-8.39,29.59,30,56.43,75.43,56.43,128.93,0,89.08-42,170.61-48.22,185.53-3.83,9.18-63.88,129.14-95.8,189.89h10.72c11.92-17.67,24.23-34.67,36.87-53C362.47,447,375.3,428,389.47,404.74c12.11-19.86,25.6-42.11,40.5-73.28,23.5-49.15,31.32-80.33,33.75-90.64,5.6-23.78,6.66-39,6.75-50.14,0-5.29,0-21.85-4.82-45.32a274.27,274.27,0,0,0-8.86-32.82"/><path class="cls-10" d="M302.68,11.31a115,115,0,0,0-11-6.68l-3.48-.56C276.48,2.21,265.51,1,254.88.3a116.46,116.46,0,0,1,7.3,10c2.92,4.51,9.55,15.46,15.43,35.68,5.73,19.71,6.84,35.77,7.72,43.4,10.86,94.43-7.1,254.21-10.61,288.71-1.64,16.18-12.63,108.36-18.36,158.07h16c13.21-38.66,68.75-200.76,85.13-309.47,5.64-37.44,22.33-162.31-54.82-215.43"/><path class="cls-11" d="M176.73,592.54h114.7s5.7-19.88,19.36-56.33H155.33l21.4,56.33"/><path class="cls-12" d="M264.1,658.82h-60a16.15,16.15,0,0,0-16.11,16.11v61A16.15,16.15,0,0,0,204.06,752h60a16.15,16.15,0,0,0,16.11-16.11v-61a16.15,16.15,0,0,0-16.11-16.11"/><path class="cls-13" d="M279.11,551c-5.55,13.09-11.86,26.49-25.31,31.89-3.91,1.57-2.31,1.36-26.46,1.85-10.36.21-20.94.73-35.67-.37-6.41-.48-9.31-.94-12.66-2.23a32.65,32.65,0,0,1-7.9-4.42l5.61,14.78h114.7s5.7-19.88,19.36-56.33H284.17c-1.13,3.31-2.73,9.34-5.06,14.83"/><path class="cls-14" d="M147.54,417.51a157.83,157.83,0,0,1-34.93-23.18c21.34,43,52.43,104.32,72.45,141.87h21.15c-6-17.67-21-61.24-36.94-113.72-4.94,1.79-11.94-.27-21.73-5"/><path class="cls-8" d="M122.61,95.2c-12.67,52.21-5,108.47-1.53,131.54,8.88,58.94,29.27,133.59,48.19,195.75a9.25,9.25,0,0,0,2-1c8-5.34,9.11-23.31-3.46-59.34C131.31,257.44,146,126.95,122.61,95.2"/><path class="cls-8" d="M41,160.79a162.41,162.41,0,0,1,4.13-36.27c-11.73,19.65-19.28,47.29-19.28,83.32,0,28.07,6.11,49.14,9.89,62.31a278.1,278.1,0,0,0,31.65,70.22c15.43,24.73,31.23,41.94,45.18,54-12.68-25.58-21.93-44.59-23.35-48C83,331.39,41,249.87,41,160.79"/><path class="cls-15" d="M169.28,422.48h0a9.32,9.32,0,0,0,2-1c3.77-2.52,6-7.83,6-16.5,0,8.68-2.24,14-6,16.5a9.32,9.32,0,0,1-2,1M132.54,286.42l-.07-.29.07.29m-.07-.3c-4.66-20.76-8.6-40.84-11.39-59.38-3.48-23.07-11.14-79.34,1.53-131.55h0c-12.67,52.21-5,108.47-1.53,131.54,2.79,18.53,6.72,38.62,11.39,59.38"/><path class="cls-15" d="M112.92,394.59l-.32-.27c-14-12-29.75-29.23-45.18-54a278.1,278.1,0,0,1-31.65-70.22C32,257,25.89,235.91,25.89,207.84h0c0,28.07,6.11,49.14,9.89,62.31a278.1,278.1,0,0,0,31.65,70.22c15.43,24.73,31.23,41.94,45.18,54-11.37-22.93-20-40.59-22.66-46.46,2.71,5.89,11.45,23.64,23,46.73M41,160.79v0m0-.21v0m0-.17v0m0-.16s0-.07,0-.1,0,.06,0,.1m0-.16v0m0-.16s0-.07,0-.1,0,.07,0,.1m0-.16s0-.07,0-.1,0,.07,0,.1m0-.23s0-.06,0-.09,0,.06,0,.09m0-.17v0m0-.17v0m0-.16s0,0,0-.06,0,0,0,.06m0-.16s0,0,0,0,0,0,0,0m0-.16v0m0-.59h0m0-.15h0"/><path class="cls-15" d="M169.27,422.48C156.33,380,142.7,331.6,132.54,286.42l-.07-.29h0c-4.66-20.76-8.6-40.85-11.39-59.38-3.48-23.07-11.14-79.32,1.53-131.54h0c23.43,31.75,8.7,162.25,45.2,266.93,6.65,19.07,9.48,33.08,9.47,42.84,0,8.68-2.24,14-6,16.5a9.32,9.32,0,0,1-2,1h0"/><path class="cls-15" d="M112.61,394.32c-14-12-29.75-29.23-45.18-54a278.1,278.1,0,0,1-31.65-70.22C32,257,25.89,235.91,25.89,207.84c0-36,7.55-63.67,19.28-83.32A162.68,162.68,0,0,0,41.06,158h0s0,.09,0,.14h0c0,.19,0,.37,0,.56v0s0,.07,0,.11,0,0,0,0v.1s0,0,0,.06,0,.06,0,.09v.07s0,.06,0,.09v.08s0,.05,0,.08,0,.06,0,.09v.12s0,.07,0,.1v.06s0,.07,0,.1v.23s0,.06,0,.1v.54h0q0,1.7,0,3.39c1,87.75,42.06,167.4,48.2,182.14.15.35.38.87.69,1.55,2.69,5.87,11.29,23.53,22.66,46.46"/><path class="cls-16" d="M390.92,41.24l-.21-.14.21.14m-.27-.18-.15-.1.15.1m-.22-.15-.14-.1.14.1m-.21-.14-.16-.11.16.11m-.21-.14-.21-.14.21.14m-.23-.16-.18-.12.18.12m-.25-.17-.14-.09.14.09m-.22-.15-.13-.09.13.09M389.1,40l-.14-.09.14.09m-.21-.14-.2-.13.2.13m-.29-.19-.11-.07.11.07m-.22-.14-.08-.05.08.05m-.21-.14-.07,0,.07,0m-.21-.13h0"/><path class="cls-17" d="M310.79,536.2H300.53c11.92-17.67,24.23-34.67,36.87-53C362.47,447,375.3,428,389.47,404.74c12.11-19.86,25.6-42.11,40.5-73.28,23.5-49.15,31.32-80.33,33.75-90.64,5.6-23.78,6.66-39,6.75-50.14,0-5.29,0-21.85-4.82-45.32a274.27,274.27,0,0,0-8.86-32.82,244.4,244.4,0,0,0-16.69-26c-7.37-10.05-23.86-29.12-49-46.19,25.17,17.07,41.66,36.11,49,46.16,32.86,44.81,43.17,88.84,43.17,126.55,0,53.58-20.8,94.44-27.26,106.74-36.18,69-145.22,216.41-145.22,216.41m-21,0H272.37c3.87-11.32,11.36-33.22,20.44-61.27C305,464.87,313.64,454.29,321,445.18c12.11-15.06,104.48-176.93,96.23-295.92A198.08,198.08,0,0,0,400,82.33c-9-20-29.17-45.71-55.2-65.23a198.79,198.79,0,0,1,43.11,21.16h0l.14.09.07,0,.13.08.08.05.11.08.11.07.1.06.2.13.07,0,.14.09.08.05.13.09.08.05.14.09.07,0,.18.12,0,0,.21.14,0,0,.16.11.07,0,.14.1.06,0c-4.39-3-8.76-5.64-13.09-8.1,29.59,30,56.43,75.43,56.43,128.93,0,89.08-42,170.61-48.22,185.53-3.83,9.18-63.88,129.14-95.8,189.89m-33.46,0H221.83c-1-8.78-2.19-18.9-3.45-29.68a148.76,148.76,0,0,0,42.82-11.91c-1.78,15.22-3.47,29.63-4.85,41.59m-50.15,0h0c-2.16-6.33-5.46-16-9.54-28.15h0c4.08,12.18,7.37,21.82,9.54,28.15m-37.2,0H155.33l-.19-.88h0S136.36,511,112,477.68a193.46,193.46,0,0,0,28.42,16.84c10.36,15.25,20.06,29.27,28.63,41.68M390.68,40.08,390.5,40h0l.15.1,0,0"/><path class="cls-18" d="M221.83,536.2H206.21c-2.16-6.33-5.46-16-9.54-28.15q3.5,0,7-.23c3.62-.23,8.64-.53,14.68-1.3,1.26,10.78,2.44,20.89,3.45,29.68h0"/><path class="cls-18" d="M185.06,537.2H169c-8.57-12.41-18.27-26.43-28.63-41.68a144.34,144.34,0,0,0,28.12,10.12c6,11.55,11.61,22.28,16.56,31.56"/><path class="cls-19" d="M300.53,536.2H289.81c31.92-60.75,92-180.71,95.8-189.89,6.22-14.92,48.22-96.44,48.22-185.53,0-53.5-26.84-99-56.43-128.93,4.34,2.46,8.7,5.14,13.09,8.1h0l.19.13,0,0,.21.14h0l.15.1c25.17,17.07,41.66,36.14,49,46.19a244.4,244.4,0,0,1,16.69,26,274.27,274.27,0,0,1,8.86,32.82c4.78,23.47,4.86,40,4.82,45.32-.09,11.18-1.15,26.36-6.75,50.14-2.43,10.31-10.25,41.49-33.75,90.64-14.9,31.17-28.39,53.42-40.5,73.28C375.3,428,362.47,447,337.4,483.25c-12.64,18.28-24.95,35.28-36.87,53h0"/><path class="cls-20" d="M272.37,536.2h-16c1.38-12,3.06-26.37,4.85-41.59,4-1.81,8.1-3.89,12.23-6.26a139.17,139.17,0,0,0,19.39-13.42c-9.08,28-16.57,49.95-20.44,61.27h0"/><polyline class="cls-21" points="310.79 536.21 284.17 536.21 284.17 536.21 155.33 536.21 185.06 536.21 185.06 536.21 206.21 536.21 206.21 536.21 206.21 536.21 310.79 536.21 310.79 536.21"/><path class="cls-22" d="M194.38,562.19c-4.23-10.53-5.2-26-5.2-26l-33.85,0s11.51,30.31,14.24,36.1c3.55,7.51,43,8.68,43.56,7.17.32-.79-14.13-5.77-18.74-17.27Z"/><path class="cls-23" d="M262.11,752.7h-56a18.31,18.31,0,0,1-10-2.73,16,16,0,0,0,7.87,2.07h60a16,16,0,0,0,4.51-.65,16.8,16.8,0,0,1-6.51,1.31m18.1-18.6V720.61h0l0,12.64c0,.28,0,.56,0,.84m.2-54.25h-.2v-4.92A16.08,16.08,0,0,0,274.88,663l0-.2c3.39,2,5.52,4.74,5.52,9.92l0,7.15"/><path class="cls-24" d="M280.26,720.62h0V679.85h.2l-.16,40.76"/><path class="cls-25" d="M274.88,663c-.24-.21-.48-.42-.73-.62l.78.43,0,.2"/><path class="cls-26" d="M264.74,752.7H203.39a16.5,16.5,0,0,1-8-2.08c-4.68-2.95-7.56-8.09-7.56-14.58v-9c1.28,11.45,18.51,17.67,36.46,17.67,13.6,0,27.62-3.58,35.41-11.17,12.94-12.61,9.13-40.28,8.85-73.73a49.67,49.67,0,0,1,6.5,2.58c.26.2.51.41.75.63a16.09,16.09,0,0,1,5.45,12v59.6a19.52,19.52,0,0,1-11.85,17.41,16.56,16.56,0,0,1-4.61.65"/><path class="cls-27" d="M203.83,703.67c-.3-7.15-.11-27.55-.15-44.72a18,18,0,0,0-15.89,18.21v42.35c1.11,4,3.7,6.81,5.18,8.48a24.16,24.16,0,0,0,5.58,5.24c3.71,2.4,7,3.23,10.93,4.14a60.36,60.36,0,0,0,11.24,1.56c2.42.11,4.77.08,7.05,0a46.58,46.58,0,0,1-6.16-2.91c-9.86-5.66-17.07-15.32-17.78-32.31Z"/><polygon class="cls-28" points="187.7 685.8 281.17 685.8 281.2 673.61 187.7 673.68 187.7 685.8 187.7 685.8"/><path class="cls-12" d="M281.08,654.7H186.89a7.71,7.71,0,0,0-7.69,7.69V672a7.71,7.71,0,0,0,7.69,7.69h94.18a7.71,7.71,0,0,0,7.69-7.69v-9.62a7.71,7.71,0,0,0-7.69-7.69Z"/><path class="cls-29" d="M233.23,679.85c-6-.09-13.58,13.39-13.53,25.8,0,3,1.08,8.71,5.92,12.26a14.74,14.74,0,0,0,16.49.42c5.81-3.89,6.34-9.59,6.34-13.11,0-12-11-25.31-15.23-25.37Z"/><path class="cls-27" d="M265.22,657.4h-78c-2,0-4.55,2-4.55,4.37v4.37h83.06a4.37,4.37,0,0,0,4.37-4.37c0-2.4-2.8-4.37-4.84-4.37Z"/><path class="cls-26" d="M280.89,654.7h-8.45c2.56,1.14,4.67,3.85,4.67,8.84,0,6-5.35,10.37-9.68,10.39l-78.69-.1a9.66,9.66,0,0,1-9.54-7.41v4.72c0,4.95,3.42,8.57,8.31,8.57h93.38c4.89,0,8.31-3.62,8.31-8.57v-8.08a8,8,0,0,0-8.31-8.35Z"/><path class="cls-30" d="M232.63,679.93c-5.79.76-12.68,13.25-12.9,25a12.13,12.13,0,0,0,4.53,7.57,11.67,11.67,0,0,0,8,2c.75-.1,8.35-1.3,8.34-12.05a32.05,32.05,0,0,0-1.11-8.35,44.85,44.85,0,0,0-6.83-14.26Z"/><path class="cls-31" d="M233.23,679.85a4.43,4.43,0,0,0-.61.07,44.85,44.85,0,0,1,6.83,14.26,32.05,32.05,0,0,1,1.11,8.35c0,10.76-7.59,12-8.34,12.05a11.67,11.67,0,0,1-8-2,12.13,12.13,0,0,1-4.53-7.57c0,.22,0,.45,0,.67,0,3,1.08,8.71,5.92,12.26a14.74,14.74,0,0,0,16.49.42c5.81-3.89,6.34-9.59,6.34-13.11,0-12-11-25.31-15.22-25.37Z"/><path class="cls-32" d="M230.93,684.18c-5,1.06-10.92,17-6.49,20.4,1.22.95,3.4-.54,3.71-.74,6.22-4,5.16-20.16,2.78-19.66Z"/></g></g></svg>