<svg xmlns="http://www.w3.org/2000/svg" xmlns:xlink="http://www.w3.org/1999/xlink" width="499" height="537"><defs><radialGradient id="b" cy="29.5156%" r="87.1354%" fx="50%" fy="29.5156%" gradientTransform="matrix(0 .92895 -1 0 .7952 -.1693)"><stop offset="0%" stop-color="#07077D"/><stop offset="100%" stop-color="#060328"/></radialGradient><path id="a" d="M170.441 536.501l-.192-.878S45.85 374.683 21.259 312.484C13.0878 291.816.0384 256.3603 0 211.6121v-.396c.009-10.5918.7483-21.702 2.454-33.2581 6.91-46.813 26.395-77.736 30.377-83.898C50.044 67.425 93.584 24.627 174.59 8.715c48.484-9.523 82.735-11.653 128.738-4.339 27.707 4.406 64.416 10.243 102.703 36.163 25.255 17.098 41.796 36.187 49.181 46.259 32.7402 44.6451 43.0905 88.5023 43.168 126.121v.8522c-.1098 53.3758-20.8199 94.0455-27.256 106.3218-36.176 69.004-145.222 216.408-145.222 216.408"/></defs><use fill="url(#b)" fill-rule="evenodd" xlink:href="#a"/></svg>