<?xml version="1.0" encoding="utf-8"?>
<!-- Generator: Adobe Illustrator 22.0.1, SVG Export Plug-In . SVG Version: 6.00 Build 0)  -->
<svg version="1.1" id="Layer_1" xmlns="http://www.w3.org/2000/svg" xmlns:xlink="http://www.w3.org/1999/xlink" x="0px" y="0px"
	 viewBox="0 0 26 10" style="enable-background:new 0 0 26 10;" xml:space="preserve">
<style type="text/css">
	.st0{fill:#FFFFFF;}
</style>
<g>
	<g>
		<path class="st0" d="M21,9.8c-0.2,0-0.4-0.1-0.5-0.2c-0.3-0.3-0.3-0.8,0-1.1l2.7-2.7H1C0.6,5.8,0.2,5.4,0.2,5S0.6,4.2,1,4.2h22.2
			l-2.7-2.7c-0.3-0.3-0.3-0.8,0-1.1s0.8-0.3,1.1,0l4,4c0.1,0.1,0.1,0.2,0.2,0.2c0,0.1,0.1,0.2,0.1,0.3s0,0.2-0.1,0.3
			c0,0.1-0.1,0.2-0.2,0.2l-4,4C21.4,9.7,21.2,9.8,21,9.8z"/>
	</g>
</g>
</svg>
