<svg xmlns="http://www.w3.org/2000/svg" enable-background="new 0 0 17.1 17.2" viewBox="0 0 17.1 17.2"><g transform="translate(11 11)"><defs><filter id="a" width="17.4" height="17.5" x="-11.2" y="-11.3" filterUnits="userSpaceOnUse"><feColorMatrix values="1 0 0 0 0 0 1 0 0 0 0 0 1 0 0 0 0 0 1 0"/></filter></defs><mask id="b" width="17.4" height="17.5" x="-11.2" y="-11.3" maskUnits="userSpaceOnUse"><path fill="#fff" d="M6.2 6.2v-17.5h-17.5V6.2H6.2z" filter="url(#a)"/></mask><path fill="#fff" d="M1.3 3.1C1 1.5.6 0 .1-1.5c.4-.1 1.4-.1 1.4-.1.8 0 1.7.1 2.7.3C3.8.5 2.8 2.1 1.3 3.1m-3.8 1.2C-4 4.3-5.4 3.8-6.6 3c.4-.7 1-1.4 1.6-2 1-1 2.2-1.7 3.6-2.2.5 1.5 1 3.1 1.4 5-.9.4-1.7.5-2.5.5m-6.9-6.8c.2-.1.8-.1.8-.1 1.4 0 3.8-.1 6.2-.9.1.3.2.6.4.9-1.4.5-2.7 1.3-3.8 2.3-.7.7-1.4 1.4-1.9 2.2C-8.8.6-9.4-.9-9.4-2.5m3.8-6.2c.5.6 1.4 1.8 2.4 3.7-2.1.6-4.1.8-5.4.8h-.6c.5-1.9 1.8-3.6 3.6-4.5m3.1-.7c1.6 0 3.1.6 4.3 1.5C.8-6.8-.4-6-1.6-5.5c-.9-1.7-1.8-3-2.4-3.7.5-.1 1-.2 1.5-.2m5.3 2.7c.9 1.1 1.4 2.5 1.5 3.9-1-.2-2.8-.3-2.8-.3-.7 0-1.4.1-2 .2-.1-.4-.3-.8-.5-1.2 1.4-.6 2.8-1.4 3.8-2.6m-5.3-4.6c-4.8.1-8.7 4.1-8.6 8.9.1 4.7 3.9 8.6 8.6 8.6 4.8 0 8.8-3.9 8.8-8.8-.1-4.8-4-8.7-8.8-8.7" mask="url(#b)"/></g></svg>