<?xml version="1.0" encoding="utf-8"?>
<!-- Generator: Adobe Illustrator 22.0.1, SVG Export Plug-In . SVG Version: 6.00 Build 0)  -->
<svg version="1.1" id="Layer_1" xmlns="http://www.w3.org/2000/svg" xmlns:xlink="http://www.w3.org/1999/xlink" x="0px" y="0px"
	 viewBox="0 0 18.2 14.9" style="enable-background:new 0 0 18.2 14.9;" xml:space="preserve">
<style type="text/css">
	.st0{fill:#FFFFFF;}
</style>
<g>
	<path class="st0" d="M18.1,1.8c-0.7,0.3-1.4,0.5-2.1,0.6c0.8-0.5,1.4-1.2,1.6-2.1c-0.7,0.4-1.5,0.7-2.4,0.9C13.9-0.3,11.5-0.4,10,1
		C9,1.9,8.6,3.3,8.9,4.6C5.9,4.4,3.1,3,1.2,0.7C0.9,1.3,0.7,1.9,0.7,2.6c0,1.3,0.7,2.4,1.7,3.1c-0.6,0-1.2-0.2-1.7-0.5v0
		c0,1.8,1.3,3.3,3,3.7C3.4,9,3,9,2.7,9C2.5,9,2.2,9,2,9c0.5,1.5,1.9,2.6,3.5,2.6c-1.3,1-2.9,1.6-4.6,1.6c-0.3,0-0.6,0-0.9-0.1
		c1.7,1.1,3.7,1.7,5.7,1.7c6.8,0,10.6-5.7,10.6-10.6c0-0.2,0-0.3,0-0.5C17,3.2,17.6,2.5,18.1,1.8"/>
</g>
</svg>
